<svg width="271" height="130" viewBox="0 0 271 130" xmlns="http://www.w3.org/2000/svg">
  <path d="M54.77 90L50.91 78.59L26.80 78.59L22.94 90L6.47 90L29.84 25.42L48.06 25.42L71.42 90L54.77 90ZM30.94 66.45L46.86 66.45L38.86 42.80L30.94 66.45Z" fill="#4E92F5"/>
  <path d="M103.47 38.66L119.20 38.66L119.20 90L103.47 90L103.47 83.01Q101.08 86.41 96.98 88.48Q92.89 90.55 87.92 90.55L87.92 90.55Q82.03 90.55 77.52 87.93Q73.02 85.31 70.53 80.34Q68.05 75.37 68.05 68.66L68.05 68.66L68.05 38.66L83.69 38.66L83.69 66.54Q83.69 71.69 86.36 74.54Q89.02 77.40 93.53 77.40L93.53 77.40Q98.13 77.40 100.80 74.54Q103.47 71.69 103.47 66.54L103.47 66.54L103.47 38.66Z" fill="#E8620A"/>
  <path d="M143.52 76.66L149.13 76.66L149.13 90L141.12 90Q132.57 90 127.78 85.81Q123.00 81.63 123.00 72.15L123.00 72.15L123.00 51.73L116.74 51.73L116.74 38.66L123.00 38.66L123.00 26.15L138.73 26.15L138.73 38.66L149.04 38.66L149.04 51.73L138.73 51.73L138.73 72.34Q138.73 74.64 139.84 75.65Q140.94 76.66 143.52 76.66L143.52 76.66Z" fill="#F4B400"/>
  <path d="M155.78 33.33Q151.64 33.33 149.02 30.89Q146.40 28.45 146.40 24.86L146.40 24.86Q146.40 21.18 149.02 18.75Q151.64 16.31 155.78 16.31L155.78 16.31Q159.83 16.31 162.45 18.75Q165.07 21.18 165.07 24.86L165.07 24.86Q165.07 28.45 162.45 30.89Q159.83 33.33 155.78 33.33L155.78 33.33ZM147.87 38.66L163.60 38.66L163.60 90L147.87 90L147.87 38.66Z" fill="#92c522"/>
  <path d="M184.51 37.93Q189.94 37.93 194.03 40.14Q198.13 42.34 200.34 45.93L200.34 45.93L200.34 38.66L216.07 38.66L216.07 89.91Q216.07 96.99 213.26 102.74Q210.46 108.49 204.71 111.90Q198.96 115.30 190.40 115.30L190.40 115.30Q178.99 115.30 171.91 109.92Q164.82 104.54 163.81 95.34L163.81 95.34L179.36 95.34Q180.10 98.28 182.86 99.98Q185.62 101.68 189.66 101.68L189.66 101.68Q194.54 101.68 197.44 98.88Q200.34 96.07 200.34 89.91L200.34 89.91L200.34 82.64Q198.04 86.23 193.99 88.48Q189.94 90.74 184.51 90.74L184.51 90.74Q178.16 90.74 173.01 87.47Q167.86 84.20 164.87 78.18Q161.88 72.15 161.88 64.24L161.88 64.24Q161.88 56.33 164.87 50.35Q167.86 44.37 173.01 41.15Q178.16 37.93 184.51 37.93L184.51 37.93ZM200.34 64.33Q200.34 58.44 197.07 55.04Q193.80 51.64 189.11 51.64L189.11 51.64Q184.42 51.64 181.15 54.99Q177.89 58.35 177.89 64.24L177.89 64.24Q177.89 70.13 181.15 73.58Q184.42 77.03 189.11 77.03L189.11 77.03Q193.80 77.03 197.07 73.62Q200.34 70.22 200.34 64.33L200.34 64.33Z" fill="#4E92F5"/>
  <path d="M240.84 90.74Q233.30 90.74 227.27 87.52Q221.25 84.30 217.80 78.32Q214.35 72.34 214.35 64.33L214.35 64.33Q214.35 56.42 217.84 50.39Q221.34 44.37 227.41 41.15Q233.48 37.93 241.03 37.93L241.03 37.93Q248.57 37.93 254.64 41.15Q260.72 44.37 264.21 50.39Q267.71 56.42 267.71 64.33L267.71 64.33Q267.71 72.24 264.17 78.27Q260.62 84.30 254.51 87.52Q248.39 90.74 240.84 90.74L240.84 90.74ZM240.84 77.12Q245.35 77.12 248.53 73.81Q251.70 70.50 251.70 64.33L251.70 64.33Q251.70 58.17 248.62 54.86Q245.54 51.54 241.03 51.54L241.03 51.54Q236.43 51.54 233.39 54.81Q230.36 58.08 230.36 64.33L230.36 64.33Q230.36 70.50 233.35 73.81Q236.34 77.12 240.84 77.12L240.84 77.12Z" fill="#E8620A"/>
</svg>
