<svg width="313" height="130" viewBox="0 0 313 130" xmlns="http://www.w3.org/2000/svg">
  <path d="M54.77 90L50.91 78.59L26.80 78.59L22.94 90L6.47 90L29.84 25.42L48.06 25.42L71.42 90L54.77 90ZM30.94 66.45L46.86 66.45L38.86 42.80L30.94 66.45Z" fill="#4E92F5"/>
  <path d="M110.47 38.66L126.20 38.66L126.20 90L110.47 90L110.47 83.01Q108.08 86.41 103.98 88.48Q99.89 90.55 94.92 90.55L94.92 90.55Q89.03 90.55 84.52 87.93Q80.02 85.31 77.53 80.34Q75.05 75.37 75.05 68.66L75.05 68.66L75.05 38.66L90.69 38.66L90.69 66.54Q90.69 71.69 93.36 74.54Q96.02 77.40 100.53 77.40L100.53 77.40Q105.13 77.40 107.80 74.54Q110.47 71.69 110.47 66.54L110.47 66.54L110.47 38.66Z" fill="#E8620A"/>
  <path d="M157.52 70.66L163.13 70.66L163.13 84L155.12 84Q146.57 84 141.78 79.81Q137 75.63 137 66.15L137 66.15L137 45.73L130.74 45.73L130.74 32.66L137 32.66L137 20.15L152.73 20.15L152.73 32.66L163.04 32.66L163.04 45.73L152.73 45.73L152.73 66.34Q152.73 68.64 153.84 69.65Q154.94 70.66 157.52 70.66L157.52 70.66Z" fill="#F4B400"/>
  <path d="M176.78 33.33Q172.64 33.33 170.02 30.89Q167.40 28.45 167.40 24.86L167.40 24.86Q167.40 21.18 170.02 18.75Q172.64 16.31 176.78 16.31L176.78 16.31Q180.83 16.31 183.45 18.75Q186.07 21.18 186.07 24.86L186.07 24.86Q186.07 28.45 183.45 30.89Q180.83 33.33 176.78 33.33L176.78 33.33ZM168.87 38.66L184.60 38.66L184.60 90L168.87 90L168.87 38.66Z" fill="#92c522"/>
  <path d="M212.51 37.93Q217.94 37.93 222.03 40.14Q226.13 42.34 228.34 45.93L228.34 45.93L228.34 38.66L244.07 38.66L244.07 89.91Q244.07 96.99 241.26 102.74Q238.46 108.49 232.71 111.90Q226.96 115.30 218.40 115.30L218.40 115.30Q206.99 115.30 199.91 109.92Q192.82 104.54 191.81 95.34L191.81 95.34L207.36 95.34Q208.10 98.28 210.86 99.98Q213.62 101.68 217.66 101.68L217.66 101.68Q222.54 101.68 225.44 98.88Q228.34 96.07 228.34 89.91L228.34 89.91L228.34 82.64Q226.04 86.23 221.99 88.48Q217.94 90.74 212.51 90.74L212.51 90.74Q206.16 90.74 201.01 87.47Q195.86 84.20 192.87 78.18Q189.88 72.15 189.88 64.24L189.88 64.24Q189.88 56.33 192.87 50.35Q195.86 44.37 201.01 41.15Q206.16 37.93 212.51 37.93L212.51 37.93ZM228.34 64.33Q228.34 58.44 225.07 55.04Q221.80 51.64 217.11 51.64L217.11 51.64Q212.42 51.64 209.15 54.99Q205.89 58.35 205.89 64.24L205.89 64.24Q205.89 70.13 209.15 73.58Q212.42 77.03 217.11 77.03L217.11 77.03Q221.80 77.03 225.07 73.62Q228.34 70.22 228.34 64.33L228.34 64.33Z" fill="#4E92F5"/>
  <path d="M275.84 86.74Q268.30 86.74 262.27 83.52Q256.25 80.30 252.80 74.32Q249.35 68.34 249.35 60.33L249.35 60.33Q249.35 52.42 252.84 46.39Q256.34 40.37 262.41 37.15Q268.48 33.93 276.03 33.93L276.03 33.93Q283.57 33.93 289.64 37.15Q295.72 40.37 299.21 46.39Q302.71 52.42 302.71 60.33L302.71 60.33Q302.71 68.24 299.17 74.27Q295.62 80.30 289.51 83.52Q283.39 86.74 275.84 86.74L275.84 86.74ZM275.84 73.12Q280.35 73.12 283.53 69.81Q286.70 66.50 286.70 60.33L286.70 60.33Q286.70 54.17 283.62 50.86Q280.54 47.54 276.03 47.54L276.03 47.54Q271.43 47.54 268.39 50.81Q265.36 54.08 265.36 60.33L265.36 60.33Q265.36 66.50 268.35 69.81Q271.34 73.12 275.84 73.12L275.84 73.12Z" fill="#E8620A"/>
</svg>
